<svg width="24" height="24" viewBox="0 0 24 24" fill="none" xmlns="http://www.w3.org/2000/svg">
<rect width="24" height="24" rx="6" fill="#262626"/>
<path d="M8.94432 18C8.63323 18 8.33429 17.9429 8.0475 17.8286C7.76072 17.7143 7.50552 17.5429 7.28193 17.3143L7.17985 17.2143C7.09236 17.1381 7.03646 17.0429 7.01215 16.9286C6.98785 16.8143 7 16.7048 7.04861 16.6L9.8776 9.52857C9.95537 9.3381 10.089 9.19286 10.2786 9.09286C10.4682 8.99286 10.665 8.96667 10.8692 9.01429L11.715 9.17143C11.8802 9.20952 12.0382 9.19762 12.1889 9.13571C12.3396 9.07381 12.4684 8.99048 12.5753 8.88571C12.7114 8.74286 12.8014 8.59286 12.8451 8.43571C12.8889 8.27857 12.8864 8.11905 12.8378 7.95714L12.7649 7.74286C12.7163 7.59048 12.709 7.43571 12.743 7.27857C12.7771 7.12143 12.8524 6.98571 12.9691 6.87143L13.5961 6.25714C13.7614 6.08571 13.968 6 14.2159 6C14.4638 6 14.6703 6.08095 14.8356 6.24286L17.475 8.87143C17.6889 9.09048 17.7983 9.35 17.8031 9.65C17.808 9.95 17.7084 10.2095 17.5042 10.4286L17.7813 10.7C17.8396 10.7667 17.8906 10.8357 17.9344 10.9071C17.9781 10.9786 18 11.0524 18 11.1286C18 11.1952 17.9854 11.2619 17.9563 11.3286C17.9271 11.3952 17.8736 11.4667 17.7958 11.5429C17.6792 11.6476 17.5407 11.7024 17.3802 11.7071C17.2198 11.7119 17.0813 11.6571 16.9646 11.5429L16.7022 11.2714L16.2939 11.6857L16.5563 11.9429C16.6633 12.0476 16.7167 12.181 16.7167 12.3429C16.7167 12.5048 16.6633 12.6381 16.5563 12.7429C16.4397 12.8476 16.3011 12.9024 16.1407 12.9071C15.9803 12.9119 15.8418 12.8571 15.7251 12.7429L15.4627 12.5L13.8294 14.1286L14.0773 14.3571C14.194 14.4714 14.2523 14.6071 14.2523 14.7643C14.2523 14.9214 14.194 15.0571 14.0773 15.1714C13.9607 15.2762 13.8221 15.331 13.6617 15.3357C13.5013 15.3405 13.3628 15.2857 13.2461 15.1714L13.0128 14.9286L12.6045 15.3429L12.8378 15.5714C12.9448 15.6762 12.9982 15.8095 12.9982 15.9714C12.9982 16.1333 12.9448 16.2667 12.8378 16.3714C12.7212 16.4762 12.5826 16.531 12.4222 16.5357C12.2618 16.5405 12.1233 16.4857 12.0066 16.3714L11.7733 16.1571L11.365 16.5571L11.5983 16.7714C11.7053 16.8857 11.7587 17.0214 11.7587 17.1786C11.7587 17.3357 11.7053 17.4714 11.5983 17.5857C11.4817 17.6905 11.3431 17.7452 11.1827 17.75C11.0223 17.7548 10.8838 17.7 10.7671 17.5857L10.5338 17.3571C10.3102 17.5762 10.0647 17.7381 9.79739 17.8429C9.53005 17.9476 9.24569 18 8.94432 18ZM8.11312 13.9571C8.16173 13.8524 8.20062 13.7595 8.22978 13.6786L8.27353 13.5571L7.95272 14.3571L8.00376 14.2357C8.03778 14.1548 8.07424 14.0619 8.11312 13.9571ZM8.68184 12.5286C8.73045 12.4238 8.76933 12.331 8.7985 12.25L8.84224 12.1286L8.52143 12.9286L8.57247 12.8071C8.6065 12.7262 8.64295 12.6333 8.68184 12.5286ZM9.25055 11.1C9.29916 10.9952 9.33805 10.9048 9.36721 10.8286L9.41096 10.7143L9.09015 11.5L9.14118 11.3786C9.17521 11.2976 9.21167 11.2048 9.25055 11.1ZM8.94432 16.8429C9.10959 16.8429 9.2627 16.8143 9.40367 16.7571C9.54463 16.7 9.66858 16.6143 9.77552 16.5L16.6438 9.67143L14.2232 7.25714L13.9315 7.54286C14.0482 7.92381 14.07 8.29524 13.9971 8.65714C13.9242 9.01905 13.7274 9.35714 13.4065 9.67143C13.1538 9.91905 12.8621 10.1024 12.5316 10.2214C12.2011 10.3405 11.8559 10.3619 11.4962 10.2857L10.8984 10.1714L10.5338 11.0429L10.8692 11.1571C10.9761 11.2048 11.0539 11.281 11.1025 11.3857C11.1511 11.4905 11.156 11.5952 11.1171 11.7C11.0782 11.8143 11.0053 11.9 10.8984 11.9571C10.7914 12.0143 10.6796 12.019 10.563 11.9714L10.213 11.8429L9.96509 12.4714L10.2422 12.5714C10.3491 12.619 10.4293 12.6952 10.4828 12.8C10.5362 12.9048 10.5435 13.0095 10.5046 13.1143C10.4658 13.2286 10.3904 13.3119 10.2786 13.3643C10.1668 13.4167 10.0526 13.419 9.93593 13.3714L9.64428 13.2714L9.39638 13.9L9.6297 13.9857C9.73663 14.0333 9.81441 14.1071 9.86301 14.2071C9.91162 14.3071 9.91648 14.4095 9.8776 14.5143C9.83871 14.6286 9.76337 14.7143 9.65157 14.7714C9.53977 14.8286 9.42554 14.8333 9.30888 14.7857L9.07556 14.7L8.28811 16.6429C8.38533 16.7095 8.48984 16.7595 8.60164 16.7929C8.71343 16.8262 8.82766 16.8429 8.94432 16.8429Z" fill="#A7F205"/>
</svg>
