<svg width="24" height="24" viewBox="0 0 24 24" fill="none" xmlns="http://www.w3.org/2000/svg">
<rect width="24" height="24" rx="6" fill="#262626"/>
<path d="M12 18C11.17 18 10.39 17.8425 9.66 17.5275C8.93 17.2125 8.295 16.785 7.755 16.245C7.215 15.705 6.7875 15.07 6.4725 14.34C6.1575 13.61 6 12.83 6 12C6 11.17 6.1575 10.39 6.4725 9.66C6.7875 8.93 7.215 8.295 7.755 7.755C8.295 7.215 8.93 6.7875 9.66 6.4725C10.39 6.1575 11.17 6 12 6C12.83 6 13.61 6.1575 14.34 6.4725C15.07 6.7875 15.705 7.215 16.245 7.755C16.785 8.295 17.2125 8.93 17.5275 9.66C17.8425 10.39 18 11.17 18 12C18 12.83 17.8425 13.61 17.5275 14.34C17.2125 15.07 16.785 15.705 16.245 16.245C15.705 16.785 15.07 17.2125 14.34 17.5275C13.61 17.8425 12.83 18 12 18ZM15 10.5L15.81 10.23L16.05 9.42C15.73 8.94 15.345 8.5275 14.895 8.1825C14.445 7.8375 13.95 7.58 13.41 7.41L12.6 7.98V8.82L15 10.5ZM9 10.5L11.4 8.82V7.98L10.59 7.41C10.05 7.58 9.555 7.8375 9.105 8.1825C8.655 8.5275 8.27 8.94 7.95 9.42L8.19 10.23L9 10.5ZM8.37 15.12L9.06 15.06L9.51 14.25L8.64 11.64L7.8 11.34L7.2 11.79C7.2 12.44 7.29 13.0325 7.47 13.5675C7.65 14.1025 7.95 14.62 8.37 15.12ZM12 16.8C12.26 16.8 12.515 16.78 12.765 16.74C13.015 16.7 13.26 16.64 13.5 16.56L13.92 15.66L13.53 15H10.47L10.08 15.66L10.5 16.56C10.74 16.64 10.985 16.7 11.235 16.74C11.485 16.78 11.74 16.8 12 16.8ZM10.65 13.8H13.35L14.19 11.4L12 9.87L9.84 11.4L10.65 13.8ZM15.63 15.12C16.05 14.62 16.35 14.1025 16.53 13.5675C16.71 13.0325 16.8 12.44 16.8 11.79L16.2 11.37L15.36 11.64L14.49 14.25L14.94 15.06L15.63 15.12Z" fill="#F53146"/>
</svg>
