<svg width="24" height="24" viewBox="0 0 24 24" fill="none" xmlns="http://www.w3.org/2000/svg">
<g clip-path="url(#clip0_247_1192)">
<path d="M18 0H6C2.68629 0 0 2.68629 0 6V18C0 21.3137 2.68629 24 6 24H18C21.3137 24 24 21.3137 24 18V6C24 2.68629 21.3137 0 18 0Z" fill="#FBFBFB" fill-opacity="0.0941176"/>
<path d="M11.4 16C10.4 16 9.55 15.6597 8.85 14.9792C8.15 14.2986 7.8 13.4722 7.8 12.5C7.8 12.3931 7.805 12.2861 7.815 12.1792C7.825 12.0722 7.84 11.9653 7.86 11.8583C7.81 11.8778 7.75 11.8924 7.68 11.9021C7.61 11.9118 7.55 11.9167 7.5 11.9167C7.08 11.9167 6.725 11.7757 6.435 11.4938C6.145 11.2118 6 10.8667 6 10.4583C6 10.05 6.1375 9.70486 6.4125 9.42292C6.6875 9.14097 7.035 9 7.455 9C7.785 9 8.0825 9.08993 8.3475 9.26979C8.6125 9.44965 8.8 9.68056 8.91 9.9625C9.24 9.67083 9.6175 9.4375 10.0425 9.2625C10.4675 9.0875 10.92 9 11.4 9H18V11.3333H15V12.5C15 13.4722 14.65 14.2986 13.95 14.9792C13.25 15.6597 12.4 16 11.4 16ZM7.5 11.0417C7.67 11.0417 7.8125 10.9858 7.9275 10.874C8.0425 10.7622 8.1 10.6236 8.1 10.4583C8.1 10.2931 8.0425 10.1545 7.9275 10.0427C7.8125 9.9309 7.67 9.875 7.5 9.875C7.33 9.875 7.1875 9.9309 7.0725 10.0427C6.9575 10.1545 6.9 10.2931 6.9 10.4583C6.9 10.6236 6.9575 10.7622 7.0725 10.874C7.1875 10.9858 7.33 11.0417 7.5 11.0417ZM11.4 14.5417C11.98 14.5417 12.475 14.3424 12.885 13.9438C13.295 13.5451 13.5 13.0639 13.5 12.5C13.5 11.9361 13.295 11.4549 12.885 11.0563C12.475 10.6576 11.98 10.4583 11.4 10.4583C10.82 10.4583 10.325 10.6576 9.915 11.0563C9.505 11.4549 9.3 11.9361 9.3 12.5C9.3 13.0639 9.505 13.5451 9.915 13.9438C10.325 14.3424 10.82 14.5417 11.4 14.5417ZM11.4 13.6667C11.73 13.6667 12.0125 13.5524 12.2475 13.324C12.4825 13.0955 12.6 12.8208 12.6 12.5C12.6 12.1792 12.4825 11.9045 12.2475 11.676C12.0125 11.4476 11.73 11.3333 11.4 11.3333C11.07 11.3333 10.7875 11.4476 10.5525 11.676C10.3175 11.9045 10.2 12.1792 10.2 12.5C10.2 12.8208 10.3175 13.0955 10.5525 13.324C10.7875 13.5524 11.07 13.6667 11.4 13.6667Z" fill="#00FF0A"/>
</g>
<defs>
<clipPath id="clip0_247_1192">
<rect width="24" height="24" fill="white"/>
</clipPath>
</defs>
</svg>
