<svg width="24" height="24" viewBox="0 0 24 24" fill="none" xmlns="http://www.w3.org/2000/svg">
<g clip-path="url(#clip0_247_1198)">
<path d="M18 0H6C2.68629 0 0 2.68629 0 6V18C0 21.3137 2.68629 24 6 24H18C21.3137 24 24 21.3137 24 18V6C24 2.68629 21.3137 0 18 0Z" fill="#FBFBFB" fill-opacity="0.0941176"/>
<path d="M12.2353 12V6.54545C12.2353 6.39091 12.286 6.26136 12.3875 6.15682C12.489 6.05227 12.6147 6 12.7647 6C12.9147 6 13.0404 6.05227 13.1419 6.15682C13.2434 6.26136 13.2941 6.39091 13.2941 6.54545V12H12.2353ZM10.1176 12V7.09091C10.1176 6.93636 10.1684 6.80682 10.2699 6.70227C10.3713 6.59773 10.4971 6.54545 10.6471 6.54545C10.7971 6.54545 10.9228 6.59773 11.0243 6.70227C11.1257 6.80682 11.1765 6.93636 11.1765 7.09091V12H10.1176ZM12.5 18C11.2471 18 10.1838 17.55 9.31029 16.65C8.43676 15.75 8 14.6545 8 13.3636V8.18182C8 8.02727 8.05074 7.89773 8.15221 7.79318C8.25368 7.68864 8.37941 7.63636 8.52941 7.63636C8.67941 7.63636 8.80515 7.68864 8.90662 7.79318C9.00809 7.89773 9.05882 8.02727 9.05882 8.18182V13.3636C9.05882 14.3545 9.39191 15.1932 10.0581 15.8795C10.7243 16.5659 11.5382 16.9091 12.5 16.9091C13.4618 16.9091 14.2757 16.5659 14.9419 15.8795C15.6081 15.1932 15.9412 14.3545 15.9412 13.3636V11.4545C15.7912 11.4545 15.6654 11.5068 15.564 11.6114C15.4625 11.7159 15.4118 11.8455 15.4118 12V14.1818H13.8235C13.5324 14.1818 13.2831 14.2886 13.0757 14.5023C12.8684 14.7159 12.7647 14.9727 12.7647 15.2727V15.8182H11.7059V15.2727C11.7059 14.6727 11.9132 14.1591 12.3279 13.7318C12.7426 13.3045 13.2412 13.0909 13.8235 13.0909H14.3529V7.63636C14.3529 7.48182 14.4037 7.35227 14.5051 7.24773C14.6066 7.14318 14.7324 7.09091 14.8824 7.09091C15.0324 7.09091 15.1581 7.14318 15.2596 7.24773C15.361 7.35227 15.4118 7.48182 15.4118 7.63636V10.4591C15.5 10.4318 15.586 10.4091 15.6699 10.3909C15.7537 10.3727 15.8441 10.3636 15.9412 10.3636H17V13.3636C17 14.6545 16.5632 15.75 15.6897 16.65C14.8162 17.55 13.7529 18 12.5 18Z" fill="#00FF0A"/>
</g>
<defs>
<clipPath id="clip0_247_1198">
<rect width="24" height="24" fill="white"/>
</clipPath>
</defs>
</svg>
