<svg width="24" height="24" viewBox="0 0 24 24" fill="none" xmlns="http://www.w3.org/2000/svg">
<g clip-path="url(#clip0_247_1201)">
<path d="M18 0H6C2.68629 0 0 2.68629 0 6V18C0 21.3137 2.68629 24 6 24H18C21.3137 24 24 21.3137 24 18V6C24 2.68629 21.3137 0 18 0Z" fill="#FBFBFB" fill-opacity="0.0941176"/>
<path fill-rule="evenodd" clip-rule="evenodd" d="M6 14.1875L9 17L9.84 16.1984L8.295 14.75H12.6V13.625H8.295L9.84 12.1766L9 11.375L6 14.1875Z" fill="#FF006E"/>
<path fill-rule="evenodd" clip-rule="evenodd" d="M14.1604 12.8234L15.0004 13.625L18.0004 10.8125L15.0004 8L14.1604 8.80156L15.7054 10.25H11.4004V11.375H15.7054L14.1604 12.8234Z" fill="#00FF0A"/>
</g>
<defs>
<clipPath id="clip0_247_1201">
<rect width="24" height="24" fill="white"/>
</clipPath>
</defs>
</svg>
