<svg width="24" height="24" viewBox="0 0 24 24" fill="none" xmlns="http://www.w3.org/2000/svg">
<g clip-path="url(#clip0_247_1205)">
<path d="M18 0H6C2.68629 0 0 2.68629 0 6V18C0 21.3137 2.68629 24 6 24H18C21.3137 24 24 21.3137 24 18V6C24 2.68629 21.3137 0 18 0Z" fill="#FBFBFB" fill-opacity="0.0941176"/>
<path d="M7.2 17C6.87 17 6.5875 16.8776 6.3525 16.6328C6.1175 16.388 6 16.0938 6 15.75V8.25C6 7.90625 6.1175 7.61198 6.3525 7.36719C6.5875 7.1224 6.87 7 7.2 7H14.4C14.73 7 15.0125 7.1224 15.2475 7.36719C15.4825 7.61198 15.6 7.90625 15.6 8.25V11.0625L18 8.5625V15.4375L15.6 12.9375V15.75C15.6 16.0938 15.4825 16.388 15.2475 16.6328C15.0125 16.8776 14.73 17 14.4 17H7.2ZM7.2 15.75H14.4V8.25H7.2V15.75Z" fill="#FF006E"/>
</g>
<defs>
<clipPath id="clip0_247_1205">
<rect width="24" height="24" fill="white"/>
</clipPath>
</defs>
</svg>
